HIERARCHY
ROOT Pelvis
{
	OFFSET 0.000000 0.000000 0.000000
	CHANNELS 6 Xposition Yposition Zposition Zrotation Yrotation Xrotation 
	JOINT Left_hip
	{
		OFFSET 0.067986 -0.089946 -0.007639
		CHANNELS 3 Zrotation Yrotation Xrotation
		JOINT Left_knee
		{
			OFFSET 0.036308 -0.388288 -0.004016
			CHANNELS 3 Zrotation Yrotation Xrotation
			JOINT Left_ankle
			{
				OFFSET -0.012264 -0.413250 -0.042878
				CHANNELS 3 Zrotation Yrotation Xrotation
				JOINT Left_foot
				{
					OFFSET 0.024043 -0.058563 0.118570
					CHANNELS 3 Zrotation Yrotation Xrotation
					End Site
					{
						OFFSET 0.000000 0.000000 0.000000
					}
				}
			}
		}
	}
	JOINT Right_hip
	{
		OFFSET -0.065648 -0.089374 -0.003858
		CHANNELS 3 Zrotation Yrotation Xrotation
		JOINT Right_knee
		{
			OFFSET -0.042132 -0.395021 -0.006361
			CHANNELS 3 Zrotation Yrotation Xrotation
			JOINT Right_ankle
			{
				OFFSET 0.014805 -0.413264 -0.041054
				CHANNELS 3 Zrotation Yrotation Xrotation
				JOINT Right_foot
				{
					OFFSET -0.021758 -0.049013 0.121832
					CHANNELS 3 Zrotation Yrotation Xrotation
					End Site
					{
						OFFSET 0.000000 0.000000 0.000000
					}
				}
			}
		}
	}
	JOINT Spine1
	{
		OFFSET -0.002755 0.104406 -0.022277
		CHANNELS 3 Zrotation Yrotation Xrotation
		JOINT Spine2
		{
			OFFSET 0.004136 0.129393 -0.002186
			CHANNELS 3 Zrotation Yrotation Xrotation
			JOINT Spine3
			{
				OFFSET 0.001906 0.049304 0.025578
				CHANNELS 3 Zrotation Yrotation Xrotation
				JOINT Neck
				{
					OFFSET -0.004620 0.210958 -0.044063
					CHANNELS 3 Zrotation Yrotation Xrotation
					JOINT Head
					{
						OFFSET 0.003833 0.067393 0.052435
						CHANNELS 3 Zrotation Yrotation Xrotation
						End Site
						{
							OFFSET 0.000000 0.000000 0.000000
						}
					}
				}
				JOINT Left_collar
				{
					OFFSET 0.070771 0.116689 -0.037192
					CHANNELS 3 Zrotation Yrotation Xrotation
					JOINT Left_shoulder
					{
						OFFSET 0.080652 0.031596 -0.005617
						CHANNELS 3 Zrotation Yrotation Xrotation
						JOINT Left_elbow
						{
							OFFSET 0.262654 -0.015020 -0.027939
							CHANNELS 3 Zrotation Yrotation Xrotation
							JOINT Left_wrist
							{
								OFFSET 0.250438 0.010062 -0.000990
								CHANNELS 3 Zrotation Yrotation Xrotation
								JOINT Left_palm
								{
									OFFSET 0.081198 -0.010037 -0.013706
									CHANNELS 3 Zrotation Yrotation Xrotation
									End Site
									{
										OFFSET 0.000000 0.000000 0.000000
									}
								}
							}
						}
					}
				}
				JOINT Right_collar
				{
					OFFSET -0.072972 0.115556 -0.040762
					CHANNELS 3 Zrotation Yrotation Xrotation
					JOINT Right_shoulder
					{
						OFFSET -0.082917 0.031841 -0.006673
						CHANNELS 3 Zrotation Yrotation Xrotation
						JOINT Right_elbow
						{
							OFFSET -0.252882 -0.013790 -0.020410
							CHANNELS 3 Zrotation Yrotation Xrotation
							JOINT Right_wrist
							{
								OFFSET -0.255570 0.009163 -0.005138
								CHANNELS 3 Zrotation Yrotation Xrotation
								JOINT Right_palm
								{
									OFFSET -0.080804 -0.007282 -0.010415
									CHANNELS 3 Zrotation Yrotation Xrotation
									End Site
									{
										OFFSET 0.000000 0.000000 0.000000
									}
								}
							}
						}
					}
				}
			}
		}
	}
}
MOTION
Frames: 11
Frame Time: 0.100000
-1.045419 0.046248 -0.500067 -1.433216 -39.307070 -178.755992 11.503133 5.746280 -7.040902 -12.086057 -13.970128 45.108093 -5.121546 -0.839808 -2.799471 7.152093 24.468983 -16.543698 -2.081804 -7.508792 4.319503 7.642454 3.706728 5.048345 10.783327 -3.422592 -3.832237 -16.008342 -4.051846 -9.131269 -0.028069 5.892845 14.076642 -0.585050 -2.695291 5.724882 3.459195 -0.858939 0.754552 24.332641 -14.450982 7.704166 23.322248 -2.276534 -9.930530 -12.405364 -6.818203 2.032863 -54.397210 -6.046132 5.704549 -3.186518 -23.647226 9.373915 0.646330 6.608981 7.631984 -12.654788 -3.677102 -24.981200 -8.437205 8.315276 -4.382290 62.833514 0.451652 16.982985 174.652671 72.023780 -170.082322 -1.525977 5.106656 -44.790004 14.576203 7.253399 -7.292195 
-1.046659 0.047911 -0.516128 -5.183368 -47.557709 -175.422674 12.522100 8.606730 -8.486686 -8.533751 -9.476820 34.830347 -7.494635 -0.475620 -3.272793 13.714611 25.981785 -13.482258 -3.125750 -9.157670 6.907415 7.829663 -0.560722 1.788538 10.238864 -4.670067 -5.087789 -15.305857 -5.510579 -7.527787 -0.671075 6.693323 13.676061 -1.156519 -2.840324 6.442171 3.337090 -0.944918 -0.344610 24.676039 -14.834319 7.829584 22.174860 -2.741029 -9.563202 -13.133402 -7.587813 3.028748 -55.126789 -5.192181 6.868107 -0.996883 -28.191888 7.684383 -4.545615 5.703219 5.309885 -14.224056 -2.679511 -29.568341 -10.279726 9.097958 -5.485940 63.521631 3.373208 16.911020 -168.033030 56.081732 -159.205234 3.696079 13.017138 -69.738205 12.827493 4.501979 -6.003090 
-1.042099 0.049429 -0.523629 -10.214936 -57.354569 -170.991482 13.239980 11.390346 -8.844238 -6.698892 -5.805913 22.022012 -9.153914 -1.808235 -2.855411 17.117090 26.294791 -10.742053 -3.970380 -11.569477 9.215313 7.721277 -5.309710 -0.402879 9.513711 -6.153763 -6.537028 -13.870790 -6.252844 -6.975726 -0.956586 7.434049 13.792864 -1.403496 -3.193691 6.741074 3.353070 -0.910144 -1.013690 24.747025 -14.076803 7.506562 21.483204 -3.552443 -9.691625 -13.712903 -7.924358 3.126362 -56.590044 -5.540135 6.835685 0.192312 -30.719756 7.944730 -7.645145 5.193140 4.663345 -14.104038 -2.623502 -30.781826 -10.456593 8.731066 -6.025289 64.311750 5.611983 16.019022 -165.670341 46.341784 -155.784727 5.017868 16.170062 -74.380071 11.965280 4.099424 -5.083540 
-1.030283 0.051315 -0.521459 -15.414067 -65.077260 -166.126016 13.125472 14.010984 -9.405976 -5.002306 0.394185 12.637612 -9.040250 -0.324877 -2.524594 18.592381 26.255953 -8.541698 -4.458408 -13.360526 11.475924 7.521322 -9.066477 -2.551673 7.988717 -7.448719 -7.413494 -10.884311 -7.543714 -6.438159 -0.692914 8.068940 14.212410 -1.765208 -2.984690 6.577242 3.324722 -0.434886 -1.429947 24.690339 -13.857587 8.147303 20.940483 -3.424347 -9.806370 -14.558298 -7.311716 3.320947 -56.851684 -4.774973 6.498176 0.297199 -32.146430 10.149348 -8.950214 4.799204 6.208719 -13.475515 -2.658761 -31.959854 -10.088198 8.956376 -5.651863 64.394709 8.027004 15.856336 -165.966800 42.644125 -154.445409 3.392753 15.818338 -73.515476 11.893704 4.237335 -5.352042 
-1.009435 0.052998 -0.511324 -19.617194 -70.929923 -161.969487 12.460037 15.421277 -10.599985 -4.186190 5.566922 10.827836 -7.936264 2.013162 -2.958252 19.223215 25.824803 -7.402008 -4.884605 -14.685250 12.745125 7.236177 -11.338700 -2.175329 6.916900 -9.307863 -8.525096 -9.266159 -8.095468 -6.802426 -0.509837 8.893836 14.082711 -1.657081 -2.715308 6.442218 3.436076 -0.017067 -1.218036 24.619769 -14.290766 8.639533 20.801620 -2.924919 -9.517645 -14.673018 -6.723606 3.191611 -57.237248 -4.490869 5.243617 -0.173115 -28.029847 8.831841 -8.236534 6.144462 6.523084 -13.430557 -2.969726 -32.342298 -9.938758 8.639993 -5.300378 64.547450 8.770879 15.816664 -165.968406 41.306015 -153.573179 3.612280 15.608115 -72.512446 11.272829 4.336735 -5.577429 
-0.976478 0.055051 -0.491863 -24.343410 -75.780618 -157.429569 10.909846 14.716699 -11.324028 -3.275499 7.145450 13.313611 -6.525196 3.836734 -3.241334 18.257268 25.101350 -6.586257 -5.559887 -15.190975 14.164740 6.074895 -13.294076 -0.533842 5.966694 -11.658515 -9.299346 -7.481975 -8.601415 -7.050275 -0.617932 9.641108 13.666534 -1.215295 -2.790422 6.531183 3.576494 0.058813 -1.178892 24.206964 -15.070307 9.683450 20.515004 -2.311635 -9.854023 -15.218719 -6.817512 3.658542 -55.955850 -3.897422 4.178963 -1.367844 -22.413813 7.822187 -8.079763 7.525956 7.900895 -13.045711 -2.864049 -32.770667 -8.921750 8.612904 -4.787833 63.006369 7.871331 16.178679 -167.159037 40.659225 -154.334677 3.630334 15.638071 -72.829163 10.152889 4.139293 -5.239652 
-0.932656 0.055420 -0.461750 -36.496402 -79.237524 -146.207218 8.571517 12.835194 -10.408574 -5.286048 3.007644 15.665933 -4.463403 1.933423 -3.869281 15.612839 26.323311 -7.001217 -8.203308 -15.108487 14.017636 3.154262 -15.118830 6.746052 6.362981 -14.434142 -9.673068 -7.314900 -8.439694 -9.286645 -1.410347 10.113821 13.083835 -1.232413 -2.525274 7.150176 3.177526 0.049340 -1.040107 24.577089 -15.413115 10.477498 19.954973 -2.417522 -9.968992 -14.508216 -6.948412 4.261895 -55.392700 -3.913092 3.421303 -2.123465 -19.334083 8.515005 -8.023649 8.461997 8.795340 -12.138321 -1.997362 -32.437381 -9.105695 9.119867 -5.021259 64.801951 7.208119 17.326354 -167.187763 40.591054 -153.607259 4.151490 14.865477 -70.856485 8.485497 3.863367 -4.525823 
-0.890579 0.050833 -0.426419 -66.762088 -81.972318 -117.882437 4.996406 10.947577 -6.239367 -6.576540 -1.192726 15.135182 0.845476 1.603081 -6.706447 11.589032 29.141301 -8.008847 -11.590063 -13.668558 8.842563 -1.847599 -16.213528 24.490410 6.211116 -19.083062 -4.952587 -7.316250 -7.431396 -13.230862 -1.695318 8.980185 13.903557 -1.744410 -1.220484 7.258537 2.312760 -0.220159 -0.703061 25.298977 -16.237275 10.526885 19.010334 -1.657784 -9.492680 -13.450504 -7.578144 4.978325 -55.157819 -5.909137 3.022553 -1.960844 -20.024674 8.460284 -8.386847 9.012510 8.277878 -11.096057 -0.906046 -32.280629 -10.433544 9.994520 -5.723764 69.553546 5.896851 19.914858 -165.029633 40.116421 -152.442085 5.746020 14.585502 -70.350048 6.073334 3.288272 -4.427188 
-0.854665 0.040759 -0.399345 -128.578717 -81.492341 -58.008529 4.172018 11.140589 0.459234 -7.495947 -8.423385 9.532527 2.813335 -0.069027 -7.447190 7.994932 29.233566 -9.647495 -11.300788 -11.112481 2.221359 0.438444 -10.576516 39.853003 8.157774 -11.134452 -1.334658 -6.403710 -7.654966 -15.770338 -1.697435 6.615617 14.835574 -0.759107 -1.060273 7.942814 2.331485 -0.776450 -1.006377 26.129620 -15.210448 10.183419 18.597068 -2.646597 -9.806440 -12.575399 -8.664351 3.739376 -55.908106 -7.632393 4.837859 -1.000598 -24.318163 7.167391 -8.095452 8.153806 6.583080 -12.659011 -1.022543 -32.143744 -10.252556 9.950353 -6.444114 70.144537 5.549501 20.666606 -165.492733 39.833735 -153.643733 5.980904 14.845240 -71.182896 8.180651 3.688844 -4.982714 
-0.820421 0.034542 -0.380976 -159.819740 -73.726204 -27.649596 4.593144 10.847433 4.381578 -7.485407 -14.731517 6.177012 1.605680 -2.555162 -7.562010 6.608980 27.849581 -10.395488 -7.439831 -7.738554 -4.402785 2.715937 -7.686518 42.657040 9.828305 -5.796810 -2.154195 -6.434731 -7.706048 -15.070332 -2.187621 4.123391 15.955190 0.161844 -1.763390 7.291874 2.843794 -1.816563 -1.213889 26.825874 -14.167193 9.289394 19.149186 -3.815525 -10.217607 -11.711701 -9.399078 3.032037 -56.221992 -8.733980 6.848482 1.018390 -31.195957 6.620354 -7.735581 6.136849 4.639397 -12.572116 -0.720351 -30.947258 -10.331024 9.288637 -7.184186 70.051778 4.740514 20.739795 -166.253208 39.935738 -154.047298 5.313818 15.310082 -72.197072 8.905104 3.698813 -4.080158 
-0.784112 0.033128 -0.364292 -167.030326 -65.973374 -21.558174 4.710878 10.076877 7.932312 -6.927110 -19.536948 4.833372 0.752452 -4.624516 -8.599660 5.751505 27.572706 -9.870374 -4.700252 -4.437448 -9.181310 2.277524 -5.557517 35.614944 9.780394 -6.591999 -2.803087 -7.562520 -6.214034 -13.224442 -2.815669 2.429603 16.927611 0.305833 -2.086129 7.743970 3.113081 -2.749605 -1.173656 26.570461 -13.259542 9.044088 18.902714 -4.541778 -9.836449 -11.502823 -10.166241 3.058812 -55.227150 -10.561229 7.082701 2.839587 -35.136628 5.769469 -7.805983 4.983534 4.035412 -11.571566 -0.598065 -29.223306 -10.160489 9.750776 -7.098442 69.761166 5.102509 21.090113 -165.993410 39.663913 -152.915000 5.078748 15.156183 -71.151680 8.900443 3.818299 -3.367998 
